<?xml version="1.0" standalone="no"?>
<!DOCTYPE svg PUBLIC "-//W3C//DTD SVG 20010904//EN"
 "http://www.w3.org/TR/2001/REC-SVG-20010904/DTD/svg10.dtd">
<svg version="1.0" xmlns="http://www.w3.org/2000/svg"
 width="1143.000000pt" height="911.000000pt" viewBox="0 0 1143.000000 911.000000"
 preserveAspectRatio="xMidYMid meet">

<g transform="translate(0.000000,911.000000) scale(0.100000,-0.100000)"
fill="#000000" stroke="none">
<path d="M5734 7351 c-18 -11 -38 -28 -45 -38 -8 -11 -34 -24 -59 -29 -39 -8
-45 -13 -48 -36 -5 -39 34 -108 68 -121 24 -9 31 -19 36 -54 8 -54 2 -68 -33
-85 -28 -13 -28 -15 -28 -103 0 -54 -5 -99 -12 -112 -9 -14 -13 -66 -13 -153
l0 -131 -42 -49 -42 -49 -29 21 c-32 23 -87 103 -87 127 0 16 -103 121 -119
121 -6 0 -18 12 -28 28 -28 45 -76 93 -108 107 -38 17 -95 69 -95 88 0 8 -11
22 -25 31 -14 9 -25 20 -25 24 0 18 96 57 144 58 69 2 91 10 104 39 6 14 17
25 23 25 7 0 22 11 35 25 13 14 32 25 42 25 10 0 27 9 36 19 10 11 28 22 41
25 50 13 40 130 -15 179 -25 22 -39 27 -86 27 -50 0 -58 -3 -96 -40 -30 -28
-51 -40 -71 -40 -17 0 -51 -13 -76 -28 -25 -16 -75 -41 -111 -57 -80 -35 -90
-43 -90 -66 0 -10 -13 -25 -30 -34 -20 -10 -30 -23 -30 -39 0 -12 -9 -31 -20
-41 -17 -16 -20 -31 -20 -110 0 -82 3 -95 25 -125 14 -19 25 -40 25 -47 0 -17
105 -124 154 -157 21 -14 48 -26 60 -26 26 -1 146 -109 146 -133 0 -11 -8 -17
-22 -18 -41 -1 -56 -7 -77 -28 -13 -13 -34 -21 -53 -21 -23 0 -42 -10 -68 -34
-23 -23 -48 -36 -73 -39 -21 -3 -49 -15 -63 -28 -21 -19 -24 -32 -24 -88 0
-55 3 -68 19 -78 29 -18 140 -18 183 1 21 9 49 16 63 16 18 0 40 14 66 40 30
30 48 40 72 40 37 0 57 15 57 43 0 11 13 23 34 32 19 8 37 19 41 25 4 6 16 5
35 -5 37 -19 54 -19 70 0 7 8 21 15 31 15 11 0 24 11 31 25 11 25 38 35 38 15
0 -6 -7 -25 -16 -41 -12 -25 -13 -40 -5 -82 6 -29 12 -63 13 -77 2 -16 13 -30
30 -38 32 -15 179 -27 193 -15 15 12 55 90 55 106 0 8 -9 26 -20 40 -15 19
-20 40 -20 86 l0 61 33 0 c17 0 43 9 57 20 20 15 41 20 101 20 55 0 80 4 89
15 12 15 66 45 81 45 17 0 136 77 157 102 13 16 32 28 41 28 28 0 51 33 51 72
0 21 7 41 16 49 14 12 16 28 10 112 -8 109 -19 134 -69 161 -19 11 -47 43 -69
79 -40 67 -67 98 -141 166 -40 37 -57 46 -101 52 -37 5 -68 18 -103 43 -44 32
-58 36 -109 36 -40 0 -69 -6 -90 -19z m304 -361 c2 -6 22 -30 43 -52 22 -23
44 -59 50 -82 6 -22 17 -49 25 -60 17 -25 18 -48 2 -64 -6 -6 -13 -21 -15 -33
-7 -46 -79 -109 -125 -109 -14 0 -37 -9 -52 -21 -22 -18 -34 -20 -77 -14 l-51
7 6 72 c11 149 32 233 71 290 14 20 25 45 25 55 0 10 3 21 8 25 10 11 86 -1
90 -14z"/>
<path d="M4121 7189 c-21 -12 -50 -19 -86 -19 -44 0 -57 -4 -69 -22 l-15 -21
-46 24 c-42 22 -47 23 -72 9 -15 -9 -34 -29 -42 -45 -7 -17 -20 -43 -27 -58
-8 -16 -14 -35 -14 -43 0 -7 -16 -20 -36 -29 -30 -12 -34 -18 -28 -37 4 -13 7
-30 6 -38 -2 -8 -5 -42 -8 -75 -4 -36 -14 -69 -25 -84 -10 -13 -19 -28 -19
-32 0 -5 -8 -28 -19 -52 -37 -85 -41 -99 -41 -147 0 -44 3 -52 35 -76 59 -45
74 -79 79 -183 5 -91 15 -121 42 -121 7 0 21 -12 31 -27 10 -15 46 -39 83 -56
53 -25 82 -31 156 -35 90 -4 93 -4 152 31 32 19 69 38 82 42 12 4 46 30 74 59
29 28 71 62 94 76 40 23 92 86 92 111 0 7 13 24 28 38 16 14 35 42 42 61 8 19
25 45 38 58 l25 24 -5 179 -5 179 -30 38 c-16 20 -37 52 -47 69 -9 18 -30 40
-46 48 -22 11 -30 23 -30 41 0 16 -13 39 -34 60 -34 34 -34 34 -129 34 -69 0
-98 4 -106 14 -19 23 -48 25 -80 5z m119 -243 c23 -8 40 -24 51 -46 9 -18 27
-39 41 -46 13 -7 37 -31 53 -54 24 -34 29 -54 33 -119 4 -63 1 -83 -13 -105
-10 -15 -18 -41 -19 -59 -1 -24 -7 -35 -28 -45 -28 -13 -35 -29 -40 -87 -3
-25 -8 -31 -31 -33 -15 -2 -33 -12 -40 -23 -6 -10 -16 -19 -22 -20 -5 0 -24
-19 -40 -42 -65 -88 -126 -86 -221 8 l-54 53 -7 222 c-8 220 -8 223 15 271 15
31 30 49 41 49 10 0 26 9 35 19 10 11 35 22 55 26 21 3 51 15 67 25 34 22 75
24 124 6z"/>
<path d="M6996 7170 c-16 -10 -33 -17 -37 -14 -11 6 -59 -55 -59 -74 0 -10
-14 -34 -31 -55 -17 -21 -34 -50 -38 -65 -5 -19 -17 -30 -39 -37 -24 -7 -34
-17 -41 -41 -10 -37 -64 -94 -88 -94 -9 0 -41 -25 -70 -56 -47 -49 -53 -60
-53 -97 1 -23 7 -53 14 -66 9 -17 11 -36 4 -70 -5 -25 -6 -68 -3 -96 3 -27 7
-95 10 -150 5 -108 20 -143 66 -156 13 -4 121 -7 239 -8 174 0 219 2 234 14
11 8 34 15 51 15 39 0 63 18 67 50 3 22 9 26 53 30 59 6 89 23 116 66 11 18
32 35 47 39 38 9 51 22 58 61 4 21 18 42 39 58 19 15 35 37 38 56 5 20 15 34
34 42 59 25 62 32 57 126 -2 48 -6 130 -8 182 -2 52 -8 103 -12 113 -4 11 -26
27 -50 38 -24 10 -44 23 -44 28 0 6 -18 20 -40 31 -21 11 -44 28 -49 39 -6 10
-32 29 -60 43 -49 24 -50 24 -75 5 -21 -15 -40 -18 -108 -15 -76 3 -83 5 -95
28 -26 52 -74 64 -127 30z m356 -297 c57 -63 67 -91 69 -206 l2 -107 -31 -29
c-18 -15 -32 -37 -32 -49 0 -22 -33 -47 -49 -37 -5 3 -21 1 -35 -5 -20 -7 -26
-17 -26 -39 0 -21 -11 -38 -40 -65 -22 -20 -46 -36 -53 -36 -7 0 -37 -16 -67
-35 -52 -33 -60 -35 -143 -35 -85 0 -90 1 -118 29 -26 26 -29 36 -29 93 0 41
5 71 15 84 8 10 15 32 15 47 0 16 9 40 20 54 11 14 20 41 20 60 0 19 5 44 11
55 6 12 13 43 15 70 4 56 35 91 96 108 22 6 47 23 60 40 l22 30 126 0 c125 0
127 0 152 -27z"/>
<path d="M3174 7131 c-44 -4 -79 -12 -90 -22 -11 -9 -27 -19 -37 -22 -9 -4
-22 -17 -28 -30 -6 -14 -29 -34 -50 -46 -21 -12 -44 -31 -49 -42 -6 -10 -17
-19 -25 -19 -8 0 -15 -4 -15 -8 0 -5 -17 -28 -37 -52 -37 -43 -83 -129 -83
-156 0 -8 -4 -15 -10 -15 -5 -1 -15 -2 -20 -3 -21 -2 -30 -32 -30 -99 0 -79 8
-100 48 -116 16 -7 39 -30 51 -52 24 -43 47 -59 83 -59 13 0 39 -13 58 -29 36
-28 128 -81 143 -81 5 0 22 -9 37 -20 16 -11 32 -20 37 -19 29 5 56 -5 78 -28
39 -43 33 -66 -26 -97 -28 -14 -56 -26 -63 -26 -7 0 -21 -9 -31 -20 -10 -11
-24 -20 -32 -20 -7 0 -40 -27 -74 -59 -44 -44 -61 -68 -66 -94 -7 -47 2 -83
24 -92 33 -13 211 -17 233 -5 44 23 210 210 210 235 0 15 17 20 54 16 10 -1
37 7 60 18 23 10 49 21 58 24 9 3 21 15 27 26 9 16 6 25 -14 49 -14 17 -25 35
-25 41 0 6 -12 18 -26 28 -28 18 -76 85 -84 118 -3 11 -21 28 -39 37 -19 9
-39 22 -44 27 -6 6 -26 11 -43 11 -26 0 -39 8 -60 35 -14 19 -34 35 -43 35 -9
0 -25 7 -35 15 -11 8 -27 15 -36 15 -9 0 -25 9 -35 20 -10 11 -35 23 -56 26
-53 9 -81 42 -87 104 -4 44 -2 50 14 50 11 0 36 9 56 20 21 11 48 19 60 18 34
-2 97 31 115 61 9 14 29 45 44 68 25 36 29 51 29 113 0 39 -5 81 -11 93 -12
22 -30 38 -39 35 -3 -1 -37 -4 -76 -7z"/>
<path d="M8160 6945 c-14 -8 -46 -14 -72 -15 -42 0 -50 -4 -87 -46 -31 -35
-41 -55 -43 -87 -2 -33 -7 -43 -23 -45 -33 -6 -38 -18 -37 -93 2 -76 -4 -94
-43 -133 -15 -15 -25 -37 -25 -53 0 -40 -10 -50 -53 -58 -26 -5 -47 -18 -67
-43 -26 -32 -28 -38 -15 -52 21 -23 46 -100 39 -122 -3 -10 -14 -23 -26 -29
-11 -6 -29 -31 -39 -55 -15 -33 -26 -44 -42 -44 -12 0 -31 -12 -41 -27 -18
-25 -19 -28 -3 -55 9 -17 17 -42 17 -57 0 -39 17 -51 74 -51 44 0 54 4 78 33
15 17 28 40 28 50 0 9 4 25 8 35 5 9 15 30 23 46 28 57 46 57 97 -2 26 -28 52
-52 58 -52 17 0 142 -123 149 -148 15 -52 91 -116 167 -141 21 -7 52 -28 70
-47 29 -30 38 -34 73 -32 l40 3 -1 70 c-1 53 -7 80 -24 110 -29 51 -98 124
-128 136 -12 5 -35 30 -50 56 -15 27 -44 65 -65 86 -34 34 -107 161 -107 187
0 5 10 10 23 11 79 4 99 8 115 22 15 14 45 18 144 21 106 3 131 6 159 24 22
13 44 18 61 15 32 -6 106 34 166 91 58 55 57 63 -15 181 -6 11 -28 53 -48 93
-37 72 -65 102 -96 102 -8 0 -38 12 -65 26 -136 72 -150 77 -229 85 -44 4 -89
10 -100 13 -11 3 -31 -1 -45 -9z m48 -189 c15 -7 41 -16 58 -19 18 -3 60 -28
95 -54 36 -26 81 -57 101 -68 21 -11 43 -32 50 -49 11 -27 10 -31 -22 -58 -24
-19 -44 -28 -65 -26 -16 1 -40 -4 -52 -10 -23 -13 -190 -15 -233 -3 -19 5 -25
13 -25 36 0 23 5 30 25 35 14 3 35 21 48 40 28 42 26 93 -7 139 -35 49 -25 64
27 37z"/>
<path d="M2004 6723 c-17 -18 -37 -33 -45 -33 -28 0 -59 -31 -59 -59 0 -37
-21 -64 -43 -55 -9 3 -17 12 -17 20 0 21 -45 46 -77 42 -21 -2 -34 -14 -52
-47 -23 -41 -24 -52 -22 -194 2 -125 6 -158 22 -193 23 -52 24 -92 3 -115 -9
-10 -16 -37 -16 -70 -2 -68 37 -133 84 -143 38 -8 57 -31 114 -144 32 -64 59
-102 83 -120 20 -15 38 -30 39 -34 2 -5 9 -8 15 -8 6 0 19 -8 30 -17 14 -14
42 -18 121 -21 97 -4 103 -3 151 25 37 21 53 38 61 64 12 37 44 59 86 59 32 0
47 19 78 100 12 30 32 78 46 107 13 28 24 56 24 62 0 6 7 32 17 58 12 37 16
80 14 188 l-1 140 -47 93 c-47 94 -120 179 -182 213 -16 8 -43 27 -61 42 -17
15 -37 27 -44 27 -8 0 -24 8 -37 19 -19 15 -47 19 -139 23 l-115 5 -31 -34z
m220 -240 c32 -12 55 -28 65 -45 9 -15 44 -41 79 -60 66 -34 82 -55 82 -107 0
-16 9 -40 20 -53 26 -34 31 -174 6 -209 -9 -13 -16 -43 -16 -66 0 -40 -2 -44
-29 -49 -18 -4 -52 -32 -95 -80 -63 -68 -70 -73 -99 -67 -18 3 -46 18 -63 32
-16 14 -44 37 -62 50 -18 13 -32 31 -32 39 0 13 -51 115 -110 217 -19 32 -24
61 -30 150 -7 125 -4 145 19 145 9 0 41 27 71 60 51 55 58 59 100 60 25 0 67
-8 94 -17z"/>
<path d="M8993 6725 c-20 -9 -35 -23 -39 -40 -4 -16 -20 -33 -43 -45 -21 -10
-43 -26 -51 -35 -12 -14 -9 -20 18 -48 29 -28 38 -32 104 -35 82 -4 124 -17
138 -42 16 -29 -16 -104 -61 -143 -21 -19 -39 -40 -39 -46 0 -30 -34 -71 -75
-92 -51 -25 -86 -66 -111 -128 -9 -23 -29 -50 -44 -61 -26 -18 -90 -131 -90
-157 0 -32 -44 -100 -71 -110 -27 -11 -29 -15 -29 -65 0 -30 6 -61 13 -70 6
-8 38 -21 71 -28 57 -13 59 -13 77 9 11 13 19 29 19 36 0 7 18 32 40 56 22 24
47 60 56 79 24 50 70 102 112 125 24 13 47 40 69 80 19 33 65 90 103 127 39
37 70 75 70 86 0 24 19 42 45 42 22 0 65 38 65 56 0 5 13 25 30 44 16 19 29
43 30 53 0 29 28 31 61 3 38 -33 73 -42 105 -27 24 11 24 13 18 93 -8 104 -24
138 -63 138 -16 0 -51 15 -79 35 -28 19 -68 39 -89 44 -21 6 -63 17 -93 26
-30 8 -62 15 -71 15 -9 0 -36 9 -60 20 -52 23 -92 25 -136 5z"/>
<path d="M5811 5675 c-12 -26 -21 -53 -21 -59 0 -6 -11 -28 -25 -48 -14 -20
-25 -50 -25 -67 0 -23 -7 -33 -27 -43 -27 -13 -28 -15 -31 -110 -2 -85 0 -100
16 -116 19 -19 19 -20 -10 -51 -97 -103 -108 -121 -108 -167 0 -25 -8 -61 -19
-82 -15 -31 -18 -55 -16 -144 2 -71 8 -116 18 -135 8 -15 21 -43 28 -62 14
-38 90 -129 123 -148 12 -6 53 -14 91 -18 66 -6 74 -4 135 27 56 29 69 41 91
85 14 28 29 68 32 89 4 24 17 48 36 65 l31 28 -6 113 c-7 162 -10 175 -44 194
-19 12 -30 28 -35 52 -7 39 -63 102 -89 102 -19 0 -21 21 -4 38 21 21 10 168
-16 222 -13 25 -24 63 -25 85 -1 22 -9 47 -18 57 -8 9 -19 39 -24 65 -5 26
-15 54 -23 61 -12 12 -17 7 -35 -33z m42 -446 l21 -12 -21 -8 c-12 -4 -31 -5
-44 -2 -21 6 -21 7 -4 20 23 16 21 16 48 2z"/>
<path d="M5263 5521 c-8 -21 -26 -45 -39 -52 -13 -7 -24 -16 -24 -21 0 -5 -12
-21 -26 -36 -40 -42 -73 -121 -76 -182 -3 -53 -5 -56 -40 -73 -35 -16 -38 -20
-38 -60 0 -45 7 -61 29 -68 9 -3 -4 -23 -38 -59 l-51 -54 0 -75 c-1 -47 -6
-86 -15 -101 -19 -34 -19 -100 1 -129 10 -13 18 -49 20 -85 5 -87 74 -216 115
-216 11 0 38 -9 59 -20 22 -11 64 -22 92 -23 l53 -2 -3 -48 c-3 -31 -18 -77
-43 -126 -21 -43 -39 -82 -39 -87 0 -5 -14 -24 -31 -42 -42 -45 -128 -82 -173
-75 -28 4 -37 1 -48 -16 -7 -11 -21 -21 -31 -21 -16 0 -16 2 -1 25 9 14 23 25
30 25 8 0 13 3 12 8 -1 4 13 38 31 76 32 65 33 71 22 120 -6 28 -10 81 -10
118 1 59 -4 77 -40 150 -45 92 -172 238 -207 238 -26 0 -49 16 -36 24 7 4 9
44 7 109 -4 109 2 134 30 123 28 -10 45 13 45 59 0 24 9 64 20 90 22 52 24 64
11 84 -8 12 -17 7 -51 -23 -33 -30 -47 -36 -67 -31 -27 6 -53 -9 -53 -32 0 -8
-16 -33 -35 -56 -19 -22 -35 -48 -35 -56 0 -9 -7 -28 -14 -43 -8 -16 -17 -45
-21 -65 -3 -20 -13 -45 -22 -55 -13 -15 -15 -33 -9 -112 5 -62 4 -96 -3 -101
-6 -3 -22 -30 -36 -59 -23 -48 -25 -65 -25 -178 l0 -125 46 -89 c31 -62 65
-108 109 -153 68 -68 57 -64 202 -69 43 -2 51 -5 49 -19 -2 -14 -16 -19 -58
-24 -48 -5 -61 -11 -89 -43 -17 -20 -44 -43 -59 -51 -14 -7 -42 -28 -61 -46
l-34 -32 1 -101 c0 -101 0 -101 48 -191 26 -49 58 -101 72 -116 13 -14 24 -32
24 -41 0 -23 48 -58 79 -58 19 0 43 -17 86 -60 38 -39 68 -60 82 -60 13 0 40
-9 60 -20 25 -13 57 -20 94 -20 35 0 73 -8 100 -20 56 -25 94 -25 126 0 15 11
41 20 61 20 20 0 44 8 55 17 17 16 48 18 275 21 280 3 251 8 402 -61 36 -16
89 -40 118 -53 29 -13 63 -24 76 -24 14 0 45 -9 71 -20 66 -28 209 -28 245 0
14 11 39 20 56 20 20 0 40 10 60 29 16 15 44 36 61 45 19 9 39 31 46 49 8 17
26 46 40 63 14 17 29 42 32 57 4 15 11 30 16 33 40 24 -59 273 -125 314 -19
11 -45 20 -58 20 -14 0 -45 16 -69 35 -24 19 -50 35 -57 35 -20 0 -131 115
-143 148 -6 18 -23 37 -37 44 -18 9 -29 26 -37 58 -7 25 -19 59 -28 75 -8 17
-19 49 -23 70 -9 49 -52 127 -99 179 -19 21 -33 42 -30 46 5 9 55 1 70 -11 6
-4 17 -4 25 1 20 13 60 13 60 0 0 -19 41 -10 74 15 18 14 37 25 43 25 5 0 39
29 75 64 58 56 66 70 72 113 4 26 14 59 23 72 9 14 13 35 9 51 -6 33 11 100
26 100 15 0 2 73 -22 123 -11 22 -20 50 -20 60 0 11 -10 36 -22 55 -19 32 -22
51 -24 181 -2 160 3 141 -88 306 -26 46 -97 101 -120 92 -24 -10 -21 -94 6
-142 17 -33 22 -62 26 -160 2 -66 8 -125 14 -132 19 -23 -3 -33 -71 -33 -60 0
-71 -3 -84 -22 -9 -13 -43 -52 -77 -88 -33 -36 -63 -76 -66 -90 -3 -14 -11
-38 -19 -53 -8 -16 -15 -45 -15 -65 -1 -20 -7 -48 -15 -62 -9 -15 -14 -53 -14
-95 -1 -60 4 -80 34 -139 19 -37 35 -70 35 -73 0 -2 -28 -1 -62 3 -39 4 -92
20 -137 41 l-75 35 -202 -4 c-181 -3 -204 -5 -223 -22 -13 -12 -28 -16 -43
-13 -12 4 -27 3 -32 -2 -14 -10 -56 -21 -56 -14 0 8 43 67 60 81 8 7 27 18 43
23 15 6 27 19 27 28 0 10 8 42 19 72 25 73 16 239 -17 313 -12 27 -22 57 -22
68 0 32 -19 57 -58 77 -20 11 -57 40 -82 65 l-44 46 -4 99 c-3 80 -1 104 12
122 10 15 16 45 16 84 0 38 6 68 15 81 22 30 3 114 -27 114 -5 0 -16 -17 -25
-39z"/>
<path d="M7867 5133 c-15 -15 -7 -141 12 -184 26 -58 41 -203 41 -384 0 -131
2 -150 22 -188 27 -51 30 -161 6 -196 -15 -21 -16 -19 -27 41 -11 65 -35 98
-71 98 -10 0 -24 7 -31 16 -12 15 -40 16 -274 9 -178 -5 -263 -10 -268 -18 -5
-7 -5 -67 -2 -135 5 -110 4 -125 -13 -150 -22 -31 -43 -88 -35 -95 2 -3 -3
-17 -12 -30 -20 -31 -7 -63 31 -77 14 -6 163 -10 334 -10 340 0 320 -4 320 65
0 19 6 35 14 38 17 7 20 -11 37 -184 10 -114 10 -129 -6 -159 -15 -28 -16 -49
-10 -137 6 -91 5 -107 -10 -123 -12 -13 -18 -39 -20 -82 -1 -35 -9 -77 -18
-94 -9 -17 -15 -45 -15 -62 1 -18 -6 -40 -15 -50 -22 -24 -21 -45 1 -65 23
-21 51 -21 76 -2 11 8 33 15 50 15 16 0 38 8 49 18 15 14 40 17 131 19 61 0
116 2 123 2 7 1 18 20 25 44 6 23 16 45 21 48 5 3 9 33 9 65 0 32 7 71 14 86
8 15 14 43 14 62 0 19 7 56 16 82 12 35 14 64 9 109 -6 59 -5 63 17 69 47 12
56 7 62 -31 13 -76 10 -129 -8 -167 -12 -25 -17 -52 -13 -76 6 -47 -4 -64 -40
-65 -21 0 -30 -7 -38 -29 -8 -25 -6 -31 18 -52 16 -13 38 -24 50 -24 12 0 40
-10 62 -21 40 -21 42 -21 77 -5 28 13 70 18 181 20 79 2 149 6 154 9 6 4 13
29 15 57 3 28 13 59 23 70 11 13 15 27 11 43 -3 14 -6 73 -7 132 -2 114 5 132
46 118 11 -4 45 -6 75 -6 30 1 76 2 101 2 34 1 53 7 73 26 23 21 26 32 26 88
0 78 -7 75 175 76 123 0 130 1 148 23 15 19 17 34 12 93 -4 39 -10 133 -14
210 -8 158 -21 197 -74 219 -62 25 -166 56 -191 56 -44 0 -83 44 -96 108 -13
62 -29 86 -74 109 -33 17 -94 10 -102 -12 -9 -23 -41 -27 -76 -9 -43 22 -45
26 -47 98 -3 133 -19 279 -33 292 -35 34 -118 54 -226 54 -78 0 -115 4 -137
16 -29 15 -80 22 -90 12 -3 -3 -6 -33 -6 -67 -1 -52 -4 -62 -18 -59 -9 2 -21
17 -26 34 -13 39 -33 64 -62 75 -13 5 -23 17 -23 28 0 10 -8 29 -19 42 -18 22
-22 23 -172 20 -140 -1 -157 0 -184 19 -30 20 -66 26 -78 13z m1123 -913 c0
-20 -5 -30 -15 -30 -15 0 -21 40 -8 53 14 15 23 6 23 -23z"/>
<path d="M3300 5062 c-19 -8 -59 -19 -88 -23 -30 -4 -62 -15 -71 -23 -10 -9
-25 -16 -33 -16 -9 0 -21 -7 -28 -15 -7 -8 -21 -15 -31 -15 -21 0 -43 -31 -53
-73 -5 -21 -11 -27 -24 -23 -10 4 -27 -1 -38 -9 -13 -9 -44 -14 -93 -15 -53 0
-79 -5 -91 -15 -10 -9 -35 -19 -56 -22 -22 -4 -43 -12 -49 -18 -5 -7 -22 -15
-36 -19 -31 -7 -39 -28 -39 -102 0 -35 -5 -54 -14 -57 -8 -3 -16 -29 -21 -63
-4 -31 -9 -63 -12 -71 -8 -20 -68 -16 -115 8 -30 15 -50 19 -77 14 -43 -8 -51
-18 -51 -66 0 -25 -7 -42 -24 -56 -13 -12 -29 -37 -35 -56 -14 -42 -34 -51
-95 -42 -39 6 -46 4 -58 -14 -8 -13 -23 -21 -41 -21 -59 0 -67 -12 -67 -104 0
-49 -6 -101 -15 -126 -10 -29 -15 -82 -15 -166 0 -163 1 -164 139 -164 116 0
151 -10 151 -42 0 -13 18 -51 40 -84 45 -70 54 -74 186 -74 82 0 83 0 108 33
15 19 26 43 26 55 0 11 4 23 10 27 14 8 38 -45 46 -101 3 -27 15 -60 25 -73
11 -13 19 -38 19 -56 0 -18 6 -38 14 -44 8 -6 17 -31 20 -54 4 -23 15 -56 26
-72 11 -17 20 -42 20 -56 0 -14 6 -34 14 -45 13 -17 30 -19 160 -22 118 -3
151 -1 177 12 18 9 51 16 75 16 41 0 42 -1 49 -39 10 -62 20 -66 191 -69 143
-4 155 -2 180 17 15 12 36 21 48 21 61 1 100 64 72 120 -8 14 -16 56 -20 94
-4 38 -13 74 -20 80 -7 6 -16 22 -20 36 -11 44 -19 457 -9 463 5 3 22 -1 37
-9 23 -11 84 -14 315 -14 265 0 287 1 297 18 8 13 9 66 3 186 -8 162 -9 169
-39 222 l-31 54 -246 0 c-223 0 -247 -2 -271 -19 -75 -52 -122 -60 -122 -20 0
10 -9 42 -21 71 -18 46 -22 85 -30 303 -14 415 -14 414 -33 433 -22 23 -165
25 -216 4z m-722 -1235 c15 -18 28 -207 14 -207 -28 0 -42 45 -42 132 0 85 6
102 28 75z m610 -565 c3 -19 -1 -23 -15 -20 -10 2 -19 14 -21 26 -3 19 1 23
15 20 10 -2 19 -14 21 -26z"/>
<path d="M6847 4783 c-12 -11 -8 -38 13 -78 28 -55 30 -278 3 -307 -16 -18
-16 -21 -1 -48 20 -36 12 -40 -77 -40 l-64 0 -56 -57 c-46 -47 -58 -67 -71
-117 -9 -33 -24 -72 -35 -87 -16 -23 -19 -45 -19 -136 0 -102 2 -113 30 -168
33 -65 80 -119 122 -141 41 -21 186 -19 211 4 10 9 38 26 61 37 37 18 42 25
51 70 6 28 18 66 26 85 34 78 42 129 37 250 -4 86 -9 125 -20 138 -27 31 -30
54 -9 68 17 12 18 24 14 146 -5 136 -16 176 -64 248 -9 14 -22 43 -28 65 -9
36 -16 42 -60 58 -55 19 -55 19 -64 10z"/>
<path d="M7434 2443 c-58 -6 -77 -30 -82 -106 -2 -34 -10 -69 -17 -77 -7 -8
-29 -55 -50 -105 -71 -173 -83 -195 -109 -195 -27 0 -36 -16 -36 -69 0 -20 -5
-42 -12 -49 -13 -13 -38 -75 -45 -115 -6 -33 -27 -45 -48 -27 -17 14 -91 165
-101 205 -10 46 -59 118 -93 138 -17 10 -31 24 -31 30 0 7 -18 47 -40 90 -22
43 -40 85 -40 94 0 18 -64 139 -88 166 -14 15 -31 17 -165 13 -82 -2 -153 -8
-159 -14 -20 -20 1 -67 38 -87 59 -32 65 -54 74 -289 27 -638 28 -618 -34
-630 -26 -5 -36 -12 -36 -25 0 -38 27 -46 174 -49 171 -4 220 4 224 37 4 28
-12 41 -51 41 -17 0 -37 11 -55 29 l-27 30 -11 263 c-10 261 -8 327 12 298 48
-76 102 -178 108 -207 13 -60 85 -192 112 -206 14 -7 31 -22 37 -34 7 -11 20
-32 30 -46 11 -15 21 -46 24 -69 10 -85 55 -137 109 -126 30 6 55 52 60 113 3
32 12 71 20 86 8 16 14 36 14 47 0 27 43 64 65 56 24 -10 45 20 45 66 0 19 6
44 14 55 7 11 16 38 19 60 7 59 33 120 63 150 14 14 23 32 20 40 -3 8 -1 17 3
19 11 7 19 -42 30 -199 20 -265 20 -361 0 -395 -16 -26 -24 -30 -63 -30 -25 0
-48 -4 -51 -10 -9 -14 12 -48 33 -54 10 -3 107 -8 217 -11 194 -5 199 -5 222
17 21 20 22 23 6 40 -9 10 -20 18 -24 18 -5 0 -28 14 -53 31 -34 24 -47 41
-55 73 -13 53 -35 685 -24 711 17 42 59 95 76 95 30 0 58 37 51 68 -4 15 -11
32 -15 38 -9 11 -196 15 -285 7z"/>
<path d="M5170 2422 c-114 -3 -130 -10 -130 -62 0 -18 9 -31 30 -43 17 -10 30
-22 30 -27 0 -4 25 -22 55 -39 34 -20 65 -47 82 -74 16 -23 33 -46 39 -52 7
-5 24 -30 39 -55 15 -25 38 -56 51 -70 12 -14 37 -55 54 -92 18 -38 36 -68 40
-68 5 0 11 -9 15 -19 3 -10 19 -25 36 -31 17 -7 34 -23 39 -35 4 -12 11 -87
15 -167 8 -163 14 -150 -74 -184 -61 -23 -70 -34 -46 -58 16 -16 31 -17 235
-21 127 -2 221 7 227 23 10 24 -9 43 -61 61 -61 21 -61 22 -70 212 -6 132 -5
146 12 172 11 16 17 38 14 49 -2 11 3 44 13 73 16 45 25 56 57 71 40 18 98 75
98 97 0 19 51 117 85 165 19 26 38 42 51 42 11 0 29 9 39 20 10 11 29 20 42
20 28 0 63 17 63 30 0 4 -12 22 -26 39 l-26 31 -192 0 c-197 0 -216 -4 -216
-40 0 -9 23 -36 51 -60 59 -50 72 -77 58 -119 -7 -20 -22 -34 -49 -45 -33 -13
-41 -23 -59 -71 -12 -31 -21 -60 -21 -64 0 -5 -22 -31 -48 -59 l-48 -51 -19
32 c-10 18 -31 47 -47 65 -15 18 -31 45 -34 60 -11 47 -37 82 -60 82 -21 0
-94 81 -94 104 1 28 42 56 82 56 13 0 29 5 36 12 16 16 15 63 -2 77 -14 12
-183 18 -366 13z"/>
<path d="M4375 2411 c-96 -5 -138 -11 -160 -24 -16 -9 -36 -17 -42 -17 -29 0
-142 -62 -148 -80 -4 -11 -10 -20 -15 -20 -5 0 -16 -20 -25 -44 -21 -54 -76
-116 -103 -116 -30 0 -46 -27 -43 -74 1 -25 -7 -61 -19 -88 -17 -39 -19 -59
-14 -125 3 -43 12 -91 20 -107 8 -16 14 -35 14 -42 0 -26 33 -82 56 -94 12 -7
28 -25 34 -39 6 -15 38 -53 70 -85 33 -31 60 -61 60 -66 0 -10 68 -44 173 -85
65 -26 75 -27 240 -25 135 1 175 4 187 15 9 8 30 15 46 15 17 0 45 11 64 25
19 14 39 25 46 25 24 0 26 22 25 196 -2 159 0 175 16 181 10 4 39 28 66 55 53
53 60 85 26 119 -21 21 -27 21 -235 16 -118 -3 -218 -8 -224 -12 -17 -10 -11
-61 8 -78 11 -10 36 -17 63 -17 35 0 50 -6 70 -28 35 -36 37 -52 40 -222 l2
-145 -44 -7 c-24 -3 -57 -13 -74 -22 -39 -20 -148 -15 -174 8 -9 9 -31 16 -47
16 -17 0 -45 11 -64 25 -19 14 -39 25 -45 25 -16 0 -41 30 -50 60 -4 14 -23
51 -41 83 -19 32 -36 70 -40 85 -3 15 -14 48 -25 74 -22 55 -25 144 -5 192 7
18 17 52 21 75 5 28 15 47 30 57 14 9 31 37 40 65 14 42 23 51 58 67 23 10 48
26 56 35 7 10 28 17 46 17 18 0 44 9 58 20 31 24 54 25 78 4 11 -10 39 -17 71
-19 69 -3 76 -6 123 -66 22 -28 54 -67 72 -88 17 -20 35 -49 38 -64 8 -31 30
-47 55 -40 13 4 16 15 13 66 -12 205 -22 299 -33 312 -19 23 -46 18 -65 -11
-15 -23 -22 -25 -52 -21 -20 4 -43 13 -53 22 -22 20 -82 24 -245 16z"/>
</g>
</svg>
